# xmcd CD database file
#
# Track frame offsets:
#	150
#	5537
#	13597
#	20950
#	31530
#	38412
#	49537
#	56527
#	63832
#	72657
#	80695
#	87887
#	98435
#	105860
#	117282
#	124472
#	133910
#	142537
#	153697
#	158562
#	166230
#	174935
#	181145
#
# Disc length: 2650 seconds
#
# Revision: 0
# Processed by: cddbd v1.5.1PL0 Copyright (c) Steve Scherf et al.
# Submitted via: CDex 1.51
#
DISCID=170a5817
DTITLE=The Flowerpot Gang - Happy Little Flower Pots!
DYEAR=1997
DGENRE=Jazz
TTITLE0=Happy Little Flower Pot
TTITLE1=Shake
TTITLE2=Humpty Dumpty
TTITLE3=Roly Poly
TTITLE4=Here Comes Gary
TTITLE5=Bananas
TTITLE6=Going To The Beach Today
TTITLE7=Ride Your Bicycle
TTITLE8=On The Farm
TTITLE9=Heel And Toe
TTITLE10=Fairy Girl
TTITLE11=I Spy
TTITLE12=Incy Wincy Spider
TTITLE13=Billy The Silly Bunyip
TTITLE14=Twist
TTITLE15=Jokes
TTITLE16=Professor Pumpkin Head
TTITLE17=Magic Potion
TTITLE18=Bounce
TTITLE19=Lolly Pop Bop
TTITLE20=Can You Do What Gary Can
TTITLE21=Wash And Brush
TTITLE22=Dreamland
EXTD=YEAR: 1997
EXTT0=
EXTT1=
EXTT2=
EXTT3=
EXTT4=
EXTT5=
EXTT6=
EXTT7=
EXTT8=
EXTT9=
EXTT10=
EXTT11=
EXTT12=
EXTT13=
EXTT14=
EXTT15=
EXTT16=
EXTT17=
EXTT18=
EXTT19=
EXTT20=
EXTT21=
EXTT22=
PLAYORDER=
